<svg width="400" height="400" viewBox="0 0 400 400" fill="none" xmlns="http://www.w3.org/2000/svg">
<rect width="400" height="400" fill="black"/>
<path d="M87.3821 131.421L73.9561 160.213M310.25 270.399L323.676 241.607" stroke="#39FF14" stroke-width="7" stroke-linecap="round" stroke-linejoin="round"/>
<path d="M309.966 270.267C300.702 290.133 240.354 281.622 175.179 251.23C110.004 220.838 64.6921 180.08 73.9561 160.213" stroke="#39FF14" stroke-width="7" stroke-linecap="round" stroke-linejoin="round"/>
<path d="M188.871 223.007C254.043 253.397 314.39 261.92 323.659 242.043C332.927 222.167 287.608 181.417 222.436 151.027C157.264 120.636 96.9173 112.113 87.6486 131.99C78.3799 151.867 123.699 192.616 188.871 223.007Z" stroke="#39FF14" stroke-width="7" stroke-linecap="round" stroke-linejoin="round"/>
<path fill-rule="evenodd" clip-rule="evenodd" d="M170.193 160.705C168.452 159.7 166.542 159.78 165.901 160.891L163.809 164.514C163.167 165.627 164.094 167.247 165.836 168.253L171.117 171.301L166.208 179.803C165.891 180.352 165.945 181.115 166.333 181.863L169.026 186.866C169.418 187.616 170.017 188.276 170.882 188.775L196.624 203.638C197.486 204.135 198.315 204.405 199.156 204.368L204.882 204.119C205.726 204.083 206.365 203.825 206.682 203.276L211.636 194.695L226.196 203.101L223.868 207.133C223.675 207.436 223.305 207.616 222.835 207.637C222.364 207.657 221.83 207.516 221.342 207.242L219.518 206.189C217.791 205.192 215.769 205.283 215.136 206.379L212.873 210.3C212.193 211.477 213.172 213.192 214.896 214.187L223.863 219.364C224.725 219.862 225.554 220.132 226.398 220.096L232.124 219.847C232.968 219.811 233.607 219.554 233.924 219.005L238.879 210.424L242.068 212.265C243.812 213.272 245.679 213.266 246.321 212.154L248.413 208.53C248.566 208.266 248.635 207.958 248.618 207.623C248.6 207.288 248.496 206.933 248.311 206.578C248.127 206.224 247.865 205.877 247.541 205.557C247.218 205.237 246.839 204.951 246.426 204.716L243.237 202.875L248.144 194.375C248.461 193.826 248.408 193.063 248.019 192.315L245.328 187.31C244.935 186.562 244.336 185.902 243.471 185.403L218.323 170.883C217.461 170.386 216.632 170.116 215.792 170.152L210.065 170.403C209.221 170.438 208.582 170.696 208.265 171.245L203.311 179.826L188.16 171.078L190.488 167.046C190.68 166.743 191.049 166.563 191.519 166.542C191.989 166.522 192.523 166.663 193.011 166.936L194.726 167.926C196.45 168.921 198.472 168.831 199.105 167.735L201.368 163.814C202.048 162.637 201.069 160.922 199.345 159.926L190.49 154.814C189.628 154.316 188.799 154.046 187.955 154.08L182.229 154.331C181.387 154.368 180.745 154.624 180.428 155.173L175.474 163.754L170.193 160.705ZM183.8 178.624L181.517 182.577C181.11 183.282 181.655 184.329 182.641 184.898L194.099 191.514C194.147 191.541 194.194 191.568 194.24 191.59C195.191 192.076 196.278 191.999 196.669 191.329L198.954 187.373L183.8 178.624ZM215.994 187.148L230.553 195.554L232.835 191.601C233.243 190.896 232.698 189.849 231.712 189.28L220.848 183.007C220.801 182.981 220.755 182.955 220.707 182.931C219.756 182.445 218.669 182.522 218.281 183.193L215.994 187.148Z" fill="#39FF14"/>
<path d="M70.6737 204.5C25.1735 169 54.174 306.5 163.674 338C170.621 339.999 74.6736 302 70.6737 204.5Z" fill="#39FF14" stroke="#39FF14"/>
<path d="M327.36 194.575C372.86 230.075 343.859 92.5745 234.36 61.0746C227.412 59.076 323.36 97.0746 327.36 194.575Z" fill="#39FF14" stroke="#39FF14"/>
<path d="M84 145.5L126.5 191L220.5 236.5L270 252H318L306 278H252L172 252L104 209.5L73.5 172L76 157L84 145.5Z" fill="#39FF14"/>
</svg>
