<svg width="400" height="400" viewBox="0 0 400 400" fill="none" xmlns="http://www.w3.org/2000/svg">
<rect width="400" height="400" fill="url(#paint0_linear_745_1134)"/>
<g filter="url(#filter0_d_745_1134)">
<path fill-rule="evenodd" clip-rule="evenodd" d="M96.4961 90.8359C160.462 106.484 278.043 184.195 335 264.47C316.396 253.854 249.171 227.34 196.091 231.137C212.295 232.243 229.788 237.635 245.821 244.42C253.733 256.41 261.081 269.28 267.707 283.084C245.986 265.226 185.964 240.191 130.634 267.056C141.178 229.395 139.354 175.248 92.3086 118.021C104.863 123.47 117.935 129.95 131.15 137.595C144.383 153.306 151.61 172.675 155.082 189.809C151.226 154.329 136.152 113.701 96.4961 90.8359Z" fill="white"/>
</g>
<defs>
<filter id="filter0_d_745_1134" x="69.3086" y="82.8359" width="302.691" height="252.248" filterUnits="userSpaceOnUse" color-interpolation-filters="sRGB">
<feFlood flood-opacity="0" result="BackgroundImageFix"/>
<feColorMatrix in="SourceAlpha" type="matrix" values="0 0 0 0 0 0 0 0 0 0 0 0 0 0 0 0 0 0 127 0" result="hardAlpha"/>
<feOffset dx="7" dy="22"/>
<feGaussianBlur stdDeviation="15"/>
<feComposite in2="hardAlpha" operator="out"/>
<feColorMatrix type="matrix" values="0 0 0 0 0 0 0 0 0 0.124492 0 0 0 0 0.6125 0 0 0 1 0"/>
<feBlend mode="normal" in2="BackgroundImageFix" result="effect1_dropShadow_745_1134"/>
<feBlend mode="normal" in="SourceGraphic" in2="effect1_dropShadow_745_1134" result="shape"/>
</filter>
<linearGradient id="paint0_linear_745_1134" x1="-52.5583" y1="247.07" x2="440.182" y2="208.169" gradientUnits="userSpaceOnUse">
<stop stop-color="#0031F1"/>
<stop offset="1" stop-color="#1568E5"/>
</linearGradient>
</defs>
</svg>
