<svg width="436" height="180" viewBox="0 0 436 180" fill="none" xmlns="http://www.w3.org/2000/svg">
<path d="M69.1593 50.004H115.207C118.335 49.9406 121.433 50.6342 124.235 52.0262C126.724 53.2914 128.934 55.0414 130.736 57.1729C132.446 59.2112 133.784 61.5338 134.691 64.0349C135.555 66.3467 136.013 68.7903 136.045 71.258V102.968C136.018 106.402 135.144 109.776 133.499 112.791C131.698 116.126 128.919 118.829 125.536 120.538L125.03 120.754L133.337 130H113.798L82.0887 94.4444H101.627L114.936 109.306H116.922C117.909 109.335 118.888 109.124 119.775 108.692C120.54 108.297 121.226 107.764 121.798 107.121C122.338 106.532 122.761 105.846 123.044 105.098C123.317 104.421 123.458 103.698 123.459 102.968V69.7049C123.45 68.9465 123.271 68.2 122.935 67.5199C122.583 66.7464 122.094 66.0431 121.491 65.4435C120.839 64.8016 120.081 64.2761 119.252 63.8903C118.325 63.4594 117.312 63.2436 116.29 63.2586H69.1954C68.1903 63.2397 67.1947 63.4558 66.2881 63.8903C65.4989 64.2637 64.7927 64.792 64.2115 65.4435C63.671 66.032 63.2482 66.7183 62.9656 67.4657C62.6925 68.143 62.5515 68.8666 62.5503 69.5968V102.968C62.5515 103.698 62.6925 104.421 62.9656 105.098C63.2482 105.846 63.671 106.532 64.2115 107.121C64.792 107.777 65.4981 108.312 66.2881 108.692C67.1962 109.12 68.1917 109.33 69.1954 109.306H77.7189L89.2576 122.614H69.1954C66.3162 122.685 63.462 122.066 60.8708 120.808C58.5734 119.644 56.5297 118.036 54.8577 116.078C53.2829 114.192 52.0596 112.039 51.2461 109.721C50.448 107.576 50.0263 105.31 50 103.022V69.6506C50.0263 67.3624 50.448 65.096 51.2461 62.9513C52.0555 60.6369 53.2792 58.4891 54.8577 56.613C56.5201 54.6441 58.566 53.0345 60.8708 51.8821C63.4449 50.6056 66.2864 49.9617 69.1593 50.004Z" fill="white"/>
<path d="M160.098 50.0063H172.739V101.453C172.76 102.379 172.936 103.295 173.262 104.162C173.604 105.122 174.132 106.005 174.815 106.762C175.558 107.553 176.439 108.201 177.415 108.676C178.54 109.221 179.778 109.487 181.027 109.452H225.521C226.77 109.482 228.007 109.216 229.133 108.676C230.077 108.232 230.922 107.604 231.619 106.828C232.317 106.053 232.853 105.147 233.196 104.162C233.522 103.295 233.699 102.379 233.72 101.453V50.0967H246.36V101.453C246.327 103.921 245.869 106.364 245.006 108.676C244.108 111.194 242.775 113.535 241.069 115.592C239.267 117.724 237.057 119.473 234.568 120.739C231.769 122.139 228.669 122.833 225.539 122.761H181.045C177.916 122.833 174.816 122.139 172.016 120.739C169.528 119.473 167.318 117.724 165.515 115.592C163.797 113.54 162.458 111.198 161.561 108.676C160.697 106.364 160.239 103.921 160.206 101.453L160.098 50.0063Z" fill="white"/>
<path d="M266.021 122.671L302.136 50.0063H315.336L351.307 122.671H335.182L308.673 69.2377L282.273 122.671H266.021Z" fill="white"/>
<path d="M373.227 50.0063H385.867V122.671H373.227V50.0063Z" fill="white"/>
</svg>
